<svg width="66" height="29" viewBox="0 0 66 29" fill="none" xmlns="http://www.w3.org/2000/svg">
<path d="M18.0786 9.25123C17.3271 8.74129 14.8999 8.45754 10.3907 8.08278C7.69853 7.85926 4.35266 7.58087 3.87158 7.22886C3.71665 7.06022 3.55357 6.60783 3.55357 5.8369C3.55357 4.49713 3.88381 3.56692 4.53477 3.07304C4.97917 2.72371 6.38845 2.13881 10.8392 2.13881C13.3914 2.13881 16.2127 2.36902 17.8775 2.59655C17.8829 2.59789 18.0256 2.61529 18.186 2.61529C18.4089 2.61529 18.5556 2.58183 18.6331 2.51357C18.7391 2.41988 18.7445 2.23384 18.7364 2.06386C18.7364 2.05315 18.735 2.04512 18.735 2.03977C18.735 1.61549 18.2662 0.873995 17.7198 0.61434C17.0254 0.256979 14.0886 0 10.7359 0C6.32322 0 3.88924 0.463097 2.59819 1.54723C1.55311 2.4587 1 4.07418 1 6.21835C1 7.47513 1.58845 8.65697 2.15515 9.07054C2.80476 9.57781 5.22786 9.86289 9.76558 10.2403C12.5543 10.4732 15.7126 10.7356 16.2902 11.0795C16.562 11.3378 16.6992 11.8464 16.6992 12.5906C16.6992 13.8594 16.3649 14.8807 15.8023 15.3224L15.7846 15.3371C15.1608 15.8738 13.1699 16.1361 9.69899 16.1361C7.03398 16.1361 4.4111 15.9407 1.90102 15.5539L1.87656 15.5512C1.8521 15.5485 1.82763 15.5472 1.80453 15.5472C1.47429 15.5472 1.20657 15.8109 1.20657 16.1348C1.20657 16.5256 1.61291 17.2229 2.03013 17.5468L2.05323 17.5629C2.70555 18.0126 5.83942 18.3258 9.67453 18.3258C14.1946 18.3258 16.706 17.8788 17.8177 16.8749C18.8111 15.9608 19.3588 14.277 19.3588 12.1329C19.3574 10.757 18.6956 9.67418 18.0786 9.25123Z" fill="#015BBB"/>
<path d="M64.3941 15.4709H64.356L64.318 15.4763C63.1601 15.6355 60.4462 16.009 57.1519 16.009C52.7487 16.009 50.7048 15.6556 49.6121 14.7053C48.5942 13.8005 48.0996 11.999 48.0996 9.20037C48.0996 6.51548 48.7492 4.50917 49.9274 3.55353C51.1315 2.64875 53.5206 2.18967 57.0269 2.18967C60.2518 2.18967 62.592 2.4868 64.14 2.68355L64.2256 2.69426C64.2704 2.70497 64.3153 2.70898 64.3601 2.70898C64.689 2.70898 64.9472 2.44799 64.9472 2.11472C64.9472 1.68508 64.4743 0.993115 63.9742 0.689291L63.947 0.67323L63.9266 0.663861C63.1234 0.278393 60.1581 0 56.876 0C52.5816 0 49.7358 0.6304 48.1757 1.92868C46.485 3.35009 45.5908 5.92657 45.5908 9.37838C45.5908 12.77 46.2527 15.0292 47.6144 16.2847C49.1134 17.6606 51.724 18.2227 56.626 18.2227C60.1268 18.2227 63.1275 17.9363 63.9198 17.5267C64.4036 17.2885 65.0002 16.464 65.0002 16.0317C64.9988 15.7225 64.727 15.4709 64.3941 15.4709Z" fill="#015BBB"/>
<path d="M32.4673 0C26.5869 0 21.8032 4.68183 21.8032 10.4357C21.8032 13.4124 23.1065 16.2539 25.3774 18.2334C25.5853 18.4168 25.8544 18.5172 26.1357 18.5172C26.4619 18.5172 26.7745 18.3793 26.9919 18.1397C27.193 17.9189 27.295 17.6338 27.2773 17.338C27.2596 17.0396 27.1237 16.7665 26.8954 16.5671C25.1097 15.0118 24.085 12.7767 24.085 10.4344C24.085 5.90917 27.8453 2.22849 32.466 2.22849C37.0879 2.22849 40.8469 5.90917 40.8469 10.4344C40.8469 12.7753 39.8209 15.0105 38.0324 16.5698C37.8068 16.7665 37.6723 17.0396 37.6546 17.3353C37.637 17.6325 37.7375 17.9176 37.9387 18.1397C38.1547 18.378 38.466 18.5158 38.7921 18.5158C39.0734 18.5158 39.3425 18.4155 39.5518 18.2321C41.8254 16.2539 43.1287 13.4111 43.1287 10.4344C43.1314 4.68183 38.3477 0 32.4673 0Z" fill="#015BBB"/>
<path d="M32.4672 10.682C31.8313 10.682 31.3149 11.1919 31.3149 11.8183V25.6537C31.3149 26.2801 31.8313 26.7887 32.4672 26.7887C33.103 26.7887 33.6194 26.2801 33.6194 25.6537V11.8183C33.6194 11.1919 33.103 10.682 32.4672 10.682Z" fill="#015BBB"/>
<path fill-rule="evenodd" clip-rule="evenodd" d="M64.8092 27.2328C64.9263 27.2328 65.0311 27.2634 65.1163 27.3257C65.1568 27.3554 65.1864 27.3876 65.2076 27.4158C65.2207 27.433 65.2317 27.4507 65.2372 27.4598L65.3177 27.5788L65.2727 27.7122C65.2514 27.7901 65.2088 27.8509 65.1829 27.8845C65.1479 27.93 65.1065 27.9727 65.0652 28.0097C64.9891 28.0779 64.8774 28.159 64.7605 28.1969L64.7379 28.2043L64.7144 28.2079C64.6606 28.2164 64.5518 28.2211 64.4293 28.225C64.2958 28.2293 64.1178 28.2333 63.9063 28.2369C63.483 28.2441 62.9209 28.2501 62.3027 28.2549C61.0659 28.2644 59.6015 28.2691 58.5659 28.2691C56.9348 28.2691 55.6482 28.2598 54.3955 28.241C54.1993 28.2407 53.9892 28.2059 53.8292 28.0659C53.6589 27.917 53.6113 27.7089 53.6113 27.5154V21.9703C53.6113 21.7631 53.7216 21.5999 53.8813 21.5032C54.0263 21.4153 54.2048 21.3841 54.3817 21.3839C55.5535 21.3651 56.7525 21.3651 58.4077 21.3651H58.4097C59.4057 21.3651 60.9152 21.3651 62.2063 21.3698C62.8518 21.3721 63.4435 21.3757 63.8895 21.3809C64.1124 21.3836 64.2999 21.3867 64.44 21.3903C64.5684 21.3937 64.6821 21.3978 64.7362 21.406L64.747 21.4077C64.8786 21.4326 64.9996 21.5157 65.0723 21.5754C65.114 21.6097 65.1558 21.6494 65.1912 21.6918C65.2179 21.7238 65.2737 21.7949 65.2933 21.8894L65.2995 21.9195V21.9502C65.2995 22.0809 65.2396 22.2017 65.1308 22.2788C65.0349 22.3469 64.9261 22.364 64.8405 22.364H64.837L64.3778 22.3586C63.2915 22.3466 59.9074 22.3265 58.4518 22.3265C58.3476 22.3265 58.235 22.3262 58.1165 22.3259L58.0946 22.3258C57.9679 22.3255 57.8344 22.3252 57.6962 22.3252H57.6949C57.3736 22.3238 57.025 22.3238 56.6769 22.3238C55.8762 22.3238 55.3176 22.3278 54.9198 22.3358C54.8751 22.3369 54.8404 22.3391 54.8134 22.342V24.2975C54.8576 24.2987 54.9123 24.299 54.9822 24.299H63.1757C63.2804 24.299 63.3844 24.321 63.473 24.3744C63.5502 24.4211 63.6633 24.5258 63.6633 24.6926C63.6633 24.8041 63.6079 24.89 63.5867 24.9217C63.5559 24.9675 63.5181 25.0101 63.4805 25.0464C63.4104 25.1141 63.3033 25.1963 63.1818 25.2353L63.1631 25.2412L63.1439 25.2448C63.0064 25.2698 62.7764 25.2698 62.5396 25.2697C62.5278 25.2697 62.5161 25.2697 62.5044 25.2697H54.9972C54.919 25.2697 54.8593 25.271 54.8134 25.2737V27.2747L54.8188 27.2756C54.8579 27.2815 54.9089 27.2855 54.9763 27.2877C55.9428 27.297 57.1048 27.297 58.5795 27.297C60.477 27.297 63.8652 27.2716 64.7969 27.2331L64.8092 27.2328Z" fill="#FFD501"/>
<path d="M48.2684 21.3948C48.3551 21.3724 48.5221 21.343 48.686 21.3966C48.7759 21.426 48.8724 21.4832 48.9434 21.585C49.0134 21.6854 49.0399 21.8024 49.039 21.9194V27.8461L49.0391 27.8508C49.0396 27.8781 49.0416 27.9852 48.9944 28.0821C48.9628 28.147 48.9104 28.2087 48.8335 28.2502C48.7613 28.2893 48.6869 28.3 48.6249 28.3H48.383C48.3081 28.3 48.2295 28.2956 48.1577 28.2766C48.0807 28.2561 47.9825 28.2108 47.9165 28.1079C47.8575 28.0157 47.8544 27.921 47.8539 27.8814C47.8536 27.86 47.8544 27.8385 47.8549 27.8241L47.8549 27.824L47.855 27.8216C47.8556 27.8049 47.856 27.7928 47.856 27.7805L47.8651 22.8985C47.7708 22.9583 47.6647 23.0254 47.5492 23.0981C47.0837 23.3913 46.4634 23.7791 45.8434 24.1656C45.2233 24.5522 44.6033 24.9378 44.1383 25.2267L43.3642 25.7073L43.3634 25.7079L43.2052 25.806L43.047 25.7079L42.272 25.2267C41.807 24.9378 41.187 24.5522 40.567 24.1656C39.947 23.7791 39.3266 23.3913 38.8611 23.0981C38.7457 23.0254 38.6396 22.9583 38.5453 22.8985L38.5543 27.7799C38.5543 27.7924 38.5548 27.8053 38.5554 27.822L38.5555 27.8245V27.8245C38.556 27.8389 38.5568 27.8605 38.5565 27.8819C38.556 27.9214 38.553 28.0165 38.4935 28.1089C38.4271 28.212 38.3284 28.2569 38.2519 28.277C38.1803 28.2957 38.102 28.3 38.0274 28.3H37.7855C37.7234 28.3 37.6491 28.2893 37.5768 28.2502C37.5 28.2087 37.4476 28.147 37.4159 28.0821C37.3687 27.9852 37.3707 27.8781 37.3713 27.8508L37.3713 27.8461V22.6074V21.9181C37.3713 21.8005 37.399 21.6834 37.4697 21.5834C37.541 21.4825 37.6373 21.4257 37.7271 21.3965C37.8908 21.3432 38.0575 21.3723 38.1444 21.3948C38.2039 21.4101 38.2719 21.4416 38.3276 21.4691C38.3911 21.5003 38.4678 21.5412 38.5542 21.5892C38.7272 21.6854 38.949 21.8154 39.2005 21.9668C39.7042 22.2697 40.3355 22.6629 40.9524 23.0518C41.5697 23.4409 42.1739 23.8266 42.6237 24.115C42.8486 24.2592 43.035 24.3791 43.1652 24.4629L43.2066 24.4896L43.248 24.463C43.3781 24.3791 43.5645 24.2593 43.7894 24.1151C44.2392 23.8269 44.8434 23.4413 45.4607 23.0523C46.0776 22.6635 46.7089 22.2704 47.2125 21.9673C47.464 21.816 47.6858 21.6859 47.8588 21.5897C47.9451 21.5417 48.0218 21.5007 48.0852 21.4694C48.141 21.4418 48.2093 21.4102 48.2684 21.3948Z" fill="#FFD501"/>
<path fill-rule="evenodd" clip-rule="evenodd" d="M26.9661 27.674L25.4283 25.6139C25.912 25.5838 26.2641 25.5268 26.5423 25.4342C27.2288 25.2134 27.9651 24.5636 27.9653 23.4324C27.9669 22.6307 27.6235 21.9802 26.9495 21.6811C26.6565 21.5449 26.3005 21.4693 25.7272 21.4247C25.1522 21.3801 24.3317 21.3651 23.0964 21.3651C21.751 21.3651 17.8987 21.3838 17.0111 21.4107L17.0078 21.4109C16.884 21.416 16.7334 21.435 16.6102 21.5186C16.4565 21.623 16.4063 21.7811 16.4063 21.9234V27.8299L16.4063 27.8341C16.406 27.8705 16.4048 28.0155 16.5181 28.1288C16.6301 28.241 16.7797 28.2504 16.8653 28.2504H17.1222C17.1936 28.2504 17.319 28.245 17.4275 28.1694C17.5666 28.0724 17.5948 27.9265 17.5948 27.8299V25.671C17.5948 25.6578 17.595 25.6463 17.5955 25.6364C17.6353 25.6333 17.6882 25.6324 17.7636 25.6324L23.9853 25.6389L25.7043 27.9112L25.7152 27.9228C25.8195 28.034 25.9278 28.1453 26.0809 28.2063C26.2268 28.2645 26.3862 28.2651 26.5469 28.2651H26.589C26.6738 28.2651 26.8178 28.2479 26.9259 28.1414C26.9661 28.1017 27.0166 28.0334 27.0299 27.935C27.0433 27.8352 27.0125 27.7486 26.9728 27.6848L26.9661 27.674ZM26.6531 22.8331C26.7653 22.9707 26.8597 23.1731 26.8598 23.4839C26.8585 23.9947 26.49 24.4065 25.9476 24.5664C25.6784 24.6336 25.1874 24.6657 24.1387 24.6657H17.7935C17.7047 24.6657 17.6417 24.6634 17.5961 24.659L17.5961 24.6552V22.367C18.4353 22.3409 22.0051 22.3332 23.0542 22.3332C24.1794 22.3332 24.9102 22.346 25.4028 22.3809C25.9023 22.4164 26.1179 22.473 26.2401 22.5357L26.2484 22.5399L26.2569 22.5437C26.3868 22.6004 26.5366 22.6903 26.6531 22.8331Z" fill="#FFD501"/>
<path fill-rule="evenodd" clip-rule="evenodd" d="M10.0206 21.4247C10.594 21.4693 10.9499 21.5449 11.243 21.6811C11.9201 21.9817 12.2588 22.6522 12.2588 23.4479C12.2588 24.5827 11.5187 25.2131 10.8361 25.4328C10.3894 25.5824 9.73816 25.6338 8.65912 25.6338H2.05708C1.98164 25.6338 1.92882 25.6347 1.88893 25.6378C1.8885 25.6476 1.88822 25.6591 1.88822 25.6724V27.8313C1.88822 27.9279 1.86003 28.0737 1.72092 28.1707C1.61246 28.2463 1.48702 28.2517 1.41563 28.2517H1.15877C1.07317 28.2517 0.9236 28.2423 0.811526 28.1302C0.698234 28.0168 0.699443 27.8718 0.699746 27.8354L0.699771 27.8313V21.9248C0.699771 21.7818 0.750329 21.6244 0.903657 21.5203C1.02567 21.4375 1.17519 21.4176 1.29771 21.411L1.3046 21.4108C2.19211 21.3838 6.04448 21.3651 7.38981 21.3651C8.62518 21.3651 9.44562 21.3801 10.0206 21.4247ZM10.9466 22.8197C11.0587 22.9572 11.1531 23.1595 11.1532 23.4701C11.1522 23.981 10.7837 24.393 10.2397 24.553C9.97055 24.6202 9.47963 24.6523 8.43081 24.6523H2.08697C1.99816 24.6523 1.93519 24.6501 1.88959 24.6456L1.88958 24.6418V22.3536C2.72877 22.3275 6.29854 22.3198 7.34768 22.3198C8.47287 22.3198 9.20363 22.3326 9.69621 22.3676C10.1958 22.403 10.4114 22.4596 10.5335 22.5223L10.5418 22.5266L10.5504 22.5303C10.6802 22.587 10.8301 22.6769 10.9466 22.8197Z" fill="#FFD501"/>
</svg>
