<svg xmlns="http://www.w3.org/2000/svg" version="1.1" xmlns:xlink="http://www.w3.org/1999/xlink" xmlns:svgjs="http://svgjs.com/svgjs" width="512" height="512" x="0" y="0" viewBox="0 0 682.667 682.667" style="enable-background:new 0 0 512 512" xml:space="preserve" class=""><g><defs><clipPath id="a" clipPathUnits="userSpaceOnUse"><path d="M0 512h512V0H0Z" fill="#45bfe8" data-original="#000000" opacity="1"></path></clipPath></defs><path d="M0 0h-35.921v-85.25H0" style="stroke-width:15;stroke-linecap:round;stroke-linejoin:round;stroke-miterlimit:10;stroke-dasharray:none;stroke-opacity:1" transform="matrix(1.33333 0 0 -1.33333 266.357 285.166)" fill="none" stroke="#45bfe8" stroke-width="15" stroke-linecap="round" stroke-linejoin="round" stroke-miterlimit="10" stroke-dasharray="none" stroke-opacity="" data-original="#000000" opacity="1"></path><path d="M0 0h-33.272" style="stroke-width:15;stroke-linecap:round;stroke-linejoin:round;stroke-miterlimit:10;stroke-dasharray:none;stroke-opacity:1" transform="matrix(1.33333 0 0 -1.33333 262.825 342)" fill="none" stroke="#45bfe8" stroke-width="15" stroke-linecap="round" stroke-linejoin="round" stroke-miterlimit="10" stroke-dasharray="none" stroke-opacity="" data-original="#000000" opacity="1"></path><path d="m0 0 36.141-41.063" style="stroke-width:15;stroke-linecap:round;stroke-linejoin:round;stroke-miterlimit:10;stroke-dasharray:none;stroke-opacity:1" transform="matrix(1.33333 0 0 -1.33333 320.156 344.606)" fill="none" stroke="#45bfe8" stroke-width="15" stroke-linecap="round" stroke-linejoin="round" stroke-miterlimit="10" stroke-dasharray="none" stroke-opacity="" data-original="#000000" opacity="1"></path><path d="M0 0v-86.035" style="stroke-width:15;stroke-linecap:round;stroke-linejoin:round;stroke-miterlimit:10;stroke-dasharray:none;stroke-opacity:1" transform="matrix(1.33333 0 0 -1.33333 306.323 284.643)" fill="none" stroke="#45bfe8" stroke-width="15" stroke-linecap="round" stroke-linejoin="round" stroke-miterlimit="10" stroke-dasharray="none" stroke-opacity="" data-original="#000000" opacity="1"></path><g clip-path="url(#a)" transform="matrix(1.33333 0 0 -1.33333 0 682.667)"><path d="M0 0c0-12.349-10.828-22.359-23.625-22.359-6.347 0-22.704-.099-22.704-.099S-46.431-6.225-46.431 0c0 5.113-.057 22.36-.057 22.36h22.863C-10.828 22.36 0 12.349 0 0Z" style="stroke-width:15;stroke-linecap:round;stroke-linejoin:round;stroke-miterlimit:10;stroke-dasharray:none;stroke-opacity:1" transform="translate(276.258 276.158)" fill="none" stroke="#45bfe8" stroke-width="15" stroke-linecap="round" stroke-linejoin="round" stroke-miterlimit="10" stroke-dasharray="none" stroke-opacity="" data-original="#000000" opacity="1"></path><path d="M0 0v-86.035" style="stroke-width:15;stroke-linecap:round;stroke-linejoin:round;stroke-miterlimit:10;stroke-dasharray:none;stroke-opacity:1" transform="translate(307.232 298.518)" fill="none" stroke="#45bfe8" stroke-width="15" stroke-linecap="round" stroke-linejoin="round" stroke-miterlimit="10" stroke-dasharray="none" stroke-opacity="" data-original="#000000" opacity="1"></path><path d="M0 0c0-13.409-11.346-24.279-24.755-24.279-6.65 0-23.789-.107-23.789-.107S-48.651-6.759-48.651 0c0 5.551-.06 24.279-.06 24.279h23.956C-11.346 24.279 0 13.409 0 0Z" style="stroke-width:15;stroke-linecap:round;stroke-linejoin:round;stroke-miterlimit:10;stroke-dasharray:none;stroke-opacity:1" transform="translate(355.943 274.239)" fill="none" stroke="#45bfe8" stroke-width="15" stroke-linecap="round" stroke-linejoin="round" stroke-miterlimit="10" stroke-dasharray="none" stroke-opacity="" data-original="#000000" opacity="1"></path><path d="M0 0c-4.426 1.467-7.522 5.48-8.127 10.104l-4.557 34.852c-.746 5.705-5.312 10.13-11.031 10.768a191.83 191.83 0 0 1-21.231 1.185c-7.179 0-14.26-.409-21.232-1.185-5.718-.638-10.285-5.063-11.031-10.768l-4.557-34.852C-82.37 5.48-85.467 1.467-89.893 0a142.532 142.532 0 0 1-49.888-28.823c-3.478-3.094-8.485-3.783-12.783-1.998l-32.511 13.501c-5.314 2.206-11.43.465-14.841-4.17a191.72 191.72 0 0 1-11.643-17.795 191.563 191.563 0 0 1-9.588-18.979c-2.309-5.271-.759-11.439 3.809-14.938l27.914-21.379c3.694-2.829 5.598-7.504 4.661-12.061a143.205 143.205 0 0 1-2.923-28.836c0-9.879 1.01-19.522 2.923-28.835.936-4.557-.967-9.233-4.661-12.062l-27.914-21.379c-4.568-3.499-6.117-9.666-3.809-14.938a191.89 191.89 0 0 1 9.588-18.979 191.72 191.72 0 0 1 11.643-17.795c3.411-4.635 9.527-6.376 14.841-4.169l32.511 13.5c4.298 1.785 9.304 1.095 12.782-1.998a142.56 142.56 0 0 1 49.889-28.823c4.426-1.467 7.523-5.48 8.127-10.104l4.557-34.852c.746-5.705 5.313-10.131 11.031-10.768a191.834 191.834 0 0 1 21.232-1.185c7.178 0 14.259.409 21.231 1.185 5.719.637 10.285 5.063 11.031 10.768l4.557 34.852c.605 4.624 3.701 8.637 8.127 10.104a142.565 142.565 0 0 1 49.89 28.823c3.477 3.093 8.483 3.783 12.782 1.998l32.511-13.5c5.313-2.207 11.429-.466 14.84 4.169a191.516 191.516 0 0 1 11.643 17.795 191.9 191.9 0 0 1 9.589 18.979c2.307 5.272.759 11.439-3.81 14.938l-27.914 21.379c-3.693 2.829-5.596 7.505-4.661 12.062a143.188 143.188 0 0 1 2.923 28.835c0 9.879-1.01 19.522-2.923 28.836-.936 4.557.968 9.232 4.661 12.061l27.914 21.379c4.569 3.499 6.118 9.667 3.81 14.938a191.573 191.573 0 0 1-9.589 18.979 191.516 191.516 0 0 1-11.643 17.795c-3.411 4.635-9.527 6.376-14.84 4.17L62.672-30.821c-4.299-1.785-9.306-1.096-12.783 1.998a142.914 142.914 0 0 1-20.485 15.182" style="stroke-width:15;stroke-linecap:round;stroke-linejoin:round;stroke-miterlimit:10;stroke-dasharray:none;stroke-opacity:1" transform="translate(300.946 391.478)" fill="none" stroke="#45bfe8" stroke-width="15" stroke-linecap="round" stroke-linejoin="round" stroke-miterlimit="10" stroke-dasharray="none" stroke-opacity="" data-original="#000000" opacity="1"></path><path d="M0 0c45.412-59.348 116.972-97.625 197.473-97.625 137.243 0 248.5 111.257 248.5 248.5 0 38.113-8.581 74.223-23.915 106.502" style="stroke-width:15;stroke-linecap:round;stroke-linejoin:round;stroke-miterlimit:10;stroke-dasharray:none;stroke-opacity:1" transform="translate(58.527 105.126)" fill="none" stroke="#45bfe8" stroke-width="15" stroke-linecap="round" stroke-linejoin="round" stroke-miterlimit="10" stroke-dasharray="none" stroke-opacity="" data-original="#000000" opacity="1"></path><path d="M0 0c-45.505 57.714-116.051 94.764-195.25 94.764-137.243 0-248.5-111.257-248.5-248.5 0-38.114 8.581-74.223 23.915-106.503" style="stroke-width:15;stroke-linecap:round;stroke-linejoin:round;stroke-miterlimit:10;stroke-dasharray:none;stroke-opacity:1" transform="translate(451.25 409.736)" fill="none" stroke="#45bfe8" stroke-width="15" stroke-linecap="round" stroke-linejoin="round" stroke-miterlimit="10" stroke-dasharray="none" stroke-opacity="" data-original="#000000" opacity="1"></path><path d="m0 0-8.875 62.125 53.25-17.75" style="stroke-width:15;stroke-linecap:round;stroke-linejoin:round;stroke-miterlimit:10;stroke-dasharray:none;stroke-opacity:1" transform="translate(60.75 51.875)" fill="none" stroke="#45bfe8" stroke-width="15" stroke-linecap="round" stroke-linejoin="round" stroke-miterlimit="10" stroke-dasharray="none" stroke-opacity="" data-original="#000000" opacity="1"></path><path d="m0 0 8.875-62.125-53.25 17.75" style="stroke-width:15;stroke-linecap:round;stroke-linejoin:round;stroke-miterlimit:10;stroke-dasharray:none;stroke-opacity:1" transform="translate(451.25 460.125)" fill="none" stroke="#45bfe8" stroke-width="15" stroke-linecap="round" stroke-linejoin="round" stroke-miterlimit="10" stroke-dasharray="none" stroke-opacity="" data-original="#000000" opacity="1"></path></g></g></svg>