<svg xmlns="http://www.w3.org/2000/svg" version="1.1" xmlns:xlink="http://www.w3.org/1999/xlink" xmlns:svgjs="http://svgjs.com/svgjs" width="512" height="512" x="0" y="0" viewBox="0 0 682.667 682.667" style="enable-background:new 0 0 512 512" xml:space="preserve" class=""><g><defs><clipPath id="a" clipPathUnits="userSpaceOnUse"><path d="M0 512h512V0H0Z" fill="#45bfe8" data-original="#000000" class="" opacity="1"></path></clipPath></defs><path d="M0 0h-150.124" style="stroke-width:15;stroke-linecap:round;stroke-linejoin:round;stroke-miterlimit:10;stroke-dasharray:none;stroke-opacity:1" transform="matrix(1.33333 0 0 -1.33333 452.165 230.59)" fill="none" stroke="#45bfe8" stroke-width="15" stroke-linecap="round" stroke-linejoin="round" stroke-miterlimit="10" stroke-dasharray="none" stroke-opacity="" data-original="#060606" opacity="1"></path><path d="M0 0h240.124" style="stroke-width:15;stroke-linecap:round;stroke-linejoin:round;stroke-miterlimit:10;stroke-dasharray:none;stroke-opacity:1" transform="matrix(1.33333 0 0 -1.33333 118.667 137.335)" fill="none" stroke="#45bfe8" stroke-width="15" stroke-linecap="round" stroke-linejoin="round" stroke-miterlimit="10" stroke-dasharray="none" stroke-opacity="" data-original="#060606" opacity="1"></path><g clip-path="url(#a)" transform="matrix(1.33333 0 0 -1.33333 0 682.667)"><path d="m0 0-130.712 90.545c-21.413 14.832-26.765 44.223-11.956 65.659l.006.01c14.821 21.457 44.223 26.818 65.654 11.973L113.005 36.563" style="stroke-width:15;stroke-linecap:round;stroke-linejoin:round;stroke-miterlimit:10;stroke-dasharray:none;stroke-opacity:1" transform="translate(158.542 244.782)" fill="none" stroke="#45bfe8" stroke-width="15" stroke-linecap="round" stroke-linejoin="round" stroke-miterlimit="10" stroke-dasharray="none" stroke-opacity="" data-original="#060606" opacity="1"></path><path d="m0 0 17.844 65.219h159.691L195.379 0" style="stroke-width:15;stroke-linecap:round;stroke-linejoin:round;stroke-miterlimit:10;stroke-dasharray:none;stroke-opacity:1" transform="translate(70.984 7.5)" fill="none" stroke="#45bfe8" stroke-width="15" stroke-linecap="round" stroke-linejoin="round" stroke-miterlimit="10" stroke-dasharray="none" stroke-opacity="" data-original="#060606" opacity="1"></path><path d="M0 0h253.381" style="stroke-width:15;stroke-linecap:round;stroke-linejoin:round;stroke-miterlimit:10;stroke-dasharray:none;stroke-opacity:1" transform="translate(41.983 7.5)" fill="none" stroke="#45bfe8" stroke-width="15" stroke-linecap="round" stroke-linejoin="round" stroke-miterlimit="10" stroke-dasharray="none" stroke-opacity="" data-original="#060606" opacity="1"></path><path d="M0 0v-79.167h-116.034V-34" style="stroke-width:15;stroke-linecap:round;stroke-linejoin:round;stroke-miterlimit:10;stroke-dasharray:none;stroke-opacity:1" transform="translate(226.69 151.886)" fill="none" stroke="#45bfe8" stroke-width="15" stroke-linecap="round" stroke-linejoin="round" stroke-miterlimit="10" stroke-dasharray="none" stroke-opacity="" data-original="#060606" opacity="1"></path><path d="M0 0c-3.779-11.403-3.806-24.131.807-36.23l.012-.035c10.633-27.891 41.86-41.87 69.731-31.215l143.331 54.794c27.848 10.646 41.805 41.856 31.181 69.725l-.013.033c-10.632 27.893-41.859 41.871-69.731 31.217L31.988 33.494a54.39 54.39 0 0 1-6.907-3.222" style="stroke-width:15;stroke-linecap:round;stroke-linejoin:round;stroke-miterlimit:10;stroke-dasharray:none;stroke-opacity:1" transform="translate(72.817 189.518)" fill="none" stroke="#45bfe8" stroke-width="15" stroke-linecap="round" stroke-linejoin="round" stroke-miterlimit="10" stroke-dasharray="none" stroke-opacity="" data-original="#060606" opacity="1"></path><path d="M0 0c0-15.543-12.583-28.144-28.104-28.144-15.521 0-28.104 12.601-28.104 28.144 0 15.543 12.583 28.144 28.104 28.144C-12.583 28.144 0 15.543 0 0Z" style="stroke-width:15;stroke-linecap:round;stroke-linejoin:round;stroke-miterlimit:10;stroke-dasharray:none;stroke-opacity:1" transform="translate(293 227.172)" fill="none" stroke="#45bfe8" stroke-width="15" stroke-linecap="round" stroke-linejoin="round" stroke-miterlimit="10" stroke-dasharray="none" stroke-opacity="" data-original="#060606" opacity="1"></path><path d="M0 0c0-11.859-9.601-21.474-21.443-21.474S-42.885-11.859-42.885 0c0 11.858 9.6 21.473 21.442 21.473S0 11.858 0 0Z" style="stroke-width:15;stroke-linecap:round;stroke-linejoin:round;stroke-miterlimit:10;stroke-dasharray:none;stroke-opacity:1" transform="translate(76.756 372.72)" fill="none" stroke="#45bfe8" stroke-width="15" stroke-linecap="round" stroke-linejoin="round" stroke-miterlimit="10" stroke-dasharray="none" stroke-opacity="" data-original="#060606" opacity="1"></path><path d="m0 0-2.77-19.155-24.096-14.682c-16.471-10.035-21.676-31.541-11.626-48.035 10.05-16.494 31.55-21.731 48.021-11.696l17.885 10.896 6.148 3.745 64.244-22.287a21.787 21.787 0 0 1 26.555 10.632l30.062 58.597c5.501 10.721 1.268 23.886-9.455 29.404-10.722 5.519-23.873 1.3-29.375-9.422L94.181-53.74 39.122-34.589l8.227 57.709 46.327-.109c11.863-.029 22.007 9.179 22.414 21.034.427 12.397-9.485 22.602-21.784 22.632l-65.86.156c-10.871.025-20.092-7.957-21.625-18.723L5.64 39.555" style="stroke-width:15;stroke-linecap:round;stroke-linejoin:round;stroke-miterlimit:10;stroke-dasharray:none;stroke-opacity:1" transform="translate(347.666 437.667)" fill="none" stroke="#45bfe8" stroke-width="15" stroke-linecap="round" stroke-linejoin="round" stroke-miterlimit="10" stroke-dasharray="none" stroke-opacity="" data-original="#060606" opacity="1"></path><path d="M0 0c9.652 0 9.668 15 0 15-9.652 0-9.667-15 0-15" style="fill-opacity:1;fill-rule:nonzero;stroke:none" transform="translate(338.154 366.065)" fill="#45bfe8" data-original="#060606" class="" opacity="1"></path></g></g></svg>