<svg id="Layer_1" data-name="Layer 1" xmlns="http://www.w3.org/2000/svg" viewBox="0 0 1116 86.94"><defs><style>.cls-1{fill:#fefefe;}.cls-2{fill:#fdfdfd;}.cls-3{fill:#9a9ca3;}.cls-4{fill:#cbccd0;}.cls-5{fill:#61636e;}.cls-6{fill:#686a74;}.cls-7{fill:#d1d1d4;}.cls-8{fill:#eeeeef;}.cls-9{fill:#94969d;}.cls-10{fill:#9d9ea5;}.cls-11{fill:#a3a4ab;}.cls-12{fill:#686a75;}.cls-13{fill:#676974;}.cls-14{fill:#747680;}.cls-15{fill:#d3d3d6;}</style></defs><path class="cls-1" d="M-108.17,429q523,0,1046,0c.93,0,1.14.2,1.14,1.13q0,42.41,0,84.8c0,.84-.17,1-1,1q-557,0-1114,0c-.85,0-1-.16-1-1,.06-4.29,0-8.59,0-12.88a.44.44,0,0,1,.52-.05,1.58,1.58,0,0,1,.32.84c0,.41.45.52.62.81a15.14,15.14,0,0,0,5,4.34c3.53,2.17,7.5,3.14,11.51,4a64.19,64.19,0,0,0,15.26,1.36,71.42,71.42,0,0,0,10.21-1.07,45.86,45.86,0,0,0,9.18-2.52c3.42-1.38,6.65-3.16,8.74-6.4a5.7,5.7,0,0,1,.69-.7c.57-.38.93-1,1.68-1.15a12.42,12.42,0,0,1,2.11-.09q297.44,0,594.86,0a10.61,10.61,0,0,1,4.88,1.2,11.24,11.24,0,0,0,5.15,1.07l303.76,0a13.18,13.18,0,0,1,5.4,1.1c6.34,2.75,12.68,5.5,19.07,8.12a3.66,3.66,0,0,0,1.7.26h66.51a2.11,2.11,0,0,0,1.21-.18,5.85,5.85,0,0,0-1.68-.11c-20.52,0-41-.06-61.55,0a22,22,0,0,1-9.55-2c-4.39-2-8.88-3.81-13.31-5.74-.51-.21-1.26-.27-1.16-1.13a4.16,4.16,0,0,1,2.31-.26H935.4a16.5,16.5,0,0,0,1.86,0c.23,0,.56-.07.57-.36,0-1.45.31-2.92-.19-4.34l-.34-.19a8.94,8.94,0,0,0-1.86-.07H755.9a11.57,11.57,0,0,1-1.86-.06c-.25,0-.54-.13-.58-.39s.21-.43.44-.55c1.07-.53,2.18-1,3.29-1.44,13.86-5.83,27.68-11.77,41.52-17.67q19.32-8.22,38.65-16.47c11.66-5,23.35-9.93,35-14.92,2.51-1.07,5-2.08,7.5-3.26,6.58-2.92,13.22-5.68,19.83-8.51l10.84-4.68c-1.56-.2-3.14,0-4.7-.15a13.11,13.11,0,0,0-6.12,1.21q-24.5,10.54-49.08,20.91c-8.15,3.43-16.28,6.92-24.44,10.36a7,7,0,0,1-2.79.47q-35.62,0-71.25,0a10,10,0,0,0-4.08.85c-14.4,6.19-28.85,12.27-43.24,18.46a3.16,3.16,0,0,1-2.64.11q-18.21-7.71-36.4-15.53a3,3,0,0,0-1.22-.15q-30.2,0-60.36,0c.33.56.95.6,1.44.8q21.83,9.25,43.61,18.59c.49.21,1.38.3,1.26.94s-1,.43-1.53.43H620.81a7.15,7.15,0,0,1-2.88-.64c-15-6.39-30-12.83-45.1-19.2-.57-.25-1.11-.55-1.68-.8a3.2,3.2,0,0,0-1.23-.14h-60l-.35,0c.41.58,1.08.67,1.65.91,14.44,6.11,28.83,12.32,43.28,18.42.54.23,1.53.39,1.4,1s-1.12.45-1.74.45l-27.94,0a7,7,0,0,1-2.77-.56q-23.59-10-47.15-20.09a5,5,0,0,0-1.85-.14q-25.95,0-51.9,0c-2.07-.32-3.87-1.39-5.77-2.2q-23.56-10-47.14-20.06c-.5-.21-1-.47-1.48-.65a5.13,5.13,0,0,0-1.61-.1H-2.73a7.22,7.22,0,0,0-1.61.07c-5.17,2.08-10.28,4.3-15.41,6.49q-21.93,9.36-43.88,18.69a33.9,33.9,0,0,1-3.9,1.59,1.74,1.74,0,0,1-1.64-.66c-1-.95-1.93-1.92-2.9-2.88L-107.68,432l-.79-.79C-109.54,430.09-109.51,429.82-108.17,429Z" transform="translate(177 -428.94)"/><path class="cls-2" d="M-108.17,429c-1,.83-.74,1.42.13,2.28q19.46,19.29,38.83,38.66c.43.43.79,1,1.53.9-.06.7-.68.76-1.14.95q-11.64,4.94-23.27,9.92c-8.24,3.54-16.53,7-24.74,10.57a5.19,5.19,0,0,1-5.09-.12,41.11,41.11,0,0,0-14.7-4.16,70.67,70.67,0,0,0-22.94.83,34.25,34.25,0,0,0-12.51,4.88,11.34,11.34,0,0,0-3.42,3.51c-.2.29-.58.4-.69.76a.88.88,0,0,1-.31.42.41.41,0,0,1-.48-.08q0-34.14,0-68.27c0-.89.18-1.08,1.08-1.08Q-142,429-108.17,429Z" transform="translate(177 -428.94)"/><path class="cls-3" d="M-176.51,502l-.46,0v-3a.42.42,0,0,1,.62.08A3.14,3.14,0,0,1-176.51,502Z" transform="translate(177 -428.94)"/><path class="cls-4" d="M-176.51,499l-.46,0v-.74h.47A.47.47,0,0,1-176.51,499Z" transform="translate(177 -428.94)"/><path class="cls-5" d="M-176.51,499v-.73l.06-.46c.13-.29.55-.25.66-.56a6.74,6.74,0,0,1,3.16-3.58c7.47-5,16-6.2,24.7-6.55a62.94,62.94,0,0,1,19.37,2.08,29.78,29.78,0,0,1,8.1,3.31,1.58,1.58,0,0,0,1.61.16q9.39-4,18.82-8c7.25-3.08,14.5-6.13,21.75-9.22,3.54-1.51,7.06-3.07,10.59-4.61q9.63-4.11,19.27-8.22c7.06-3,14.13-6,21.19-9q9.81-4.19,19.6-8.4L-4.84,444A4.08,4.08,0,0,1-3.49,444H367.25c.48,0,1-.17,1.45.16,2.39,1.05,4.78,2.13,7.18,3.16q5.75,2.46,11.5,4.88L403.46,459c3.72,1.58,7.42,3.2,11.14,4.78,2.49,1.06,5,2.08,7.49,3.12a3,3,0,0,0,1.46.12q25.9,0,51.82,0c.45,0,1-.24,1.36.23,7.61,3.23,15.23,6.44,22.84,9.69,6.68,2.84,13.35,5.72,20,8.58,1.56.68,3.15,1.3,4.71,2a3,3,0,0,0,1.2.2h29.91c.14,0,.29,0,.76-.08-5.5-2.31-10.7-4.48-15.89-6.68-4.32-1.84-8.6-3.74-12.92-5.58s-8.42-3.53-12.62-5.31c-2.16-.91-4.29-1.88-6.43-2.82.24-.45.67-.23,1-.23q30.66,0,61.32,0c.33,0,.75-.22,1,.23,2.65,1.43,5.5,2.45,8.25,3.66,4.14,1.81,8.33,3.51,12.5,5.28q7.54,3.19,15.07,6.41c3.6,1.53,7.19,3.09,10.78,4.64a5.07,5.07,0,0,0,2,.48H650c.15,0,.29,0,.75-.08-2.22-1-4.15-1.85-6.1-2.68-3.61-1.53-7.24-3-10.85-4.54q-7.55-3.18-15.08-6.39l-15.81-6.78c.24-.45.67-.23,1-.23q30.64,0,61.31,0c.33,0,.75-.22,1,.23,2.34,1.24,4.84,2.11,7.26,3.17,4.37,1.9,8.77,3.75,13.15,5.61,4.73,2,9.51,3.9,14.14,6.09,2,1,3.64.59,5.49-.22,7.23-3.18,14.49-6.27,21.75-9.37,7.08-3,14.17-6,21.24-9a4.81,4.81,0,0,1,2-.3q35.45,0,70.88,0a13.57,13.57,0,0,0,5.66-1.24c6.64-2.9,13.25-5.89,20-8.55,8.95-3.53,17.7-7.5,26.58-11.19,7.73-3.21,15.39-6.57,23.07-9.86l3.48-1.48a7.33,7.33,0,0,1,3.21-.65c2.43.06,4.87,0,7.49,0a3.81,3.81,0,0,1-1.78,1.11c-4.22,1.8-8.45,3.57-12.67,5.36q-7.47,3.15-14.91,6.32c-.74.32-1.47.69-2.2,1-3,.95-5.73,2.33-8.58,3.53-6.19,2.61-12.37,5.28-18.56,7.91l-17.77,7.57c-5.88,2.51-11.76,5-17.66,7.51-5.48,2.3-10.94,4.66-16.4,7-5.95,2.56-11.93,5.06-17.89,7.6-5.43,2.32-10.86,4.63-16.28,7-4.21,1.81-8.45,3.54-12.65,5.36a4.49,4.49,0,0,0-1.11.57c.1.4.44.29.69.31s.74,0,1.11,0H935.44c.56,0,1.16-.2,1.68.18a13.71,13.71,0,0,1,.18,4.47c0,.41-.21.81-.77.75a5.72,5.72,0,0,0-1.6-.09H805.44a3.29,3.29,0,0,0-1.7.22,9,9,0,0,0,3.22,1.65c4.93,2.11,9.86,4.24,14.81,6.32a7.38,7.38,0,0,0,2.87.61q32.85,0,65.68,0c.5,0,1.44-.38,1.43.36s-1,.33-1.46.33q-33.52,0-67,0a4.16,4.16,0,0,1-1.36-.08c-3.47-1.18-6.77-2.8-10.16-4.19-3.74-1.55-7.42-3.21-11.13-4.8a5.7,5.7,0,0,0-2.32-.28H616.11q-60.52,0-121.07.05a17.19,17.19,0,0,1-8.14-1.81,4,4,0,0,0-1.9-.41H-112.53l-1.11,0a1.62,1.62,0,0,0-1.15.74c-.32.15-.37.5-.55.76a6,6,0,0,1-2.55,3.15c-5.75,4.38-12.56,5.83-19.54,6.7a67.62,67.62,0,0,1-16.7,0A48.4,48.4,0,0,1-169.38,509a19,19,0,0,1-5.74-4.22,1.57,1.57,0,0,1-.63-1.28c-.15-.28-.54-.25-.67-.55l-.09-.92Z" transform="translate(177 -428.94)"/><path class="cls-2" d="M937,498.55l-1.74,0H752.15l0-.22c2.81-1.21,5.62-2.43,8.44-3.63q5.72-2.43,11.44-4.82c6-2.53,12-5,18-7.6,4.88-2.07,9.73-4.21,14.61-6.29,5.36-2.28,10.74-4.53,16.11-6.81,4.32-1.84,8.62-3.71,12.93-5.55,5.36-2.29,10.74-4.54,16.11-6.83,4.31-1.83,8.61-3.7,12.93-5.54q7.49-3.18,15-6.36a4.79,4.79,0,0,1,2.41-.79,59.89,59.89,0,0,1-6,2.67c-5.52,2.4-11.07,4.73-16.61,7.08-5.38,2.29-10.78,4.56-16.16,6.86s-10.91,4.68-16.37,7-10.78,4.57-16.17,6.86l-16.37,7c-5.39,2.29-10.78,4.56-16.16,6.86l-16.15,6.89c-2.16.92-4.32,1.83-6.47,3H936.08c.55,0,1.16-.23,1.65.24A.56.56,0,0,1,937,498.55Z" transform="translate(177 -428.94)"/><path class="cls-2" d="M368.7,444.12c-.54,0-1.08-.05-1.62-.05H-4l-.86,0c.33-.38.78-.2,1.16-.2q185.58,0,371.15,0C367.88,443.84,368.39,443.58,368.7,444.12Z" transform="translate(177 -428.94)"/><path class="cls-6" d="M821.89,513.18c.58,0,1.16,0,1.74,0h66.56a2.22,2.22,0,0,0,1.51-.21c-.43-.44-1-.26-1.38-.26H843.13c-5.43,0-10.85-.13-16.27.05a17.8,17.8,0,0,1-8-1.72c-5.06-2.22-10.15-4.36-15.23-6.53-.29-.12-.74-.18-.7-.59s.57-.32.9-.37a6.09,6.09,0,0,1,.74,0H934.85c.55,0,1.17-.25,1.64.27a4.32,4.32,0,0,1-1.48.08H805.7a3.15,3.15,0,0,0-1.58.13c1.36,1.15,3.1,1.54,4.66,2.24,4.25,1.9,8.56,3.66,12.84,5.47a8.09,8.09,0,0,0,3.2.72q33,0,65.91,0h1c.33,0,.55.08.57.47s-.2.58-.6.56H823.8C823.16,513.42,822.48,513.63,821.89,513.18Z" transform="translate(177 -428.94)"/><path class="cls-7" d="M804.12,504c.49-.36,1-.18,1.56-.18h129.2c.54,0,1.07,0,1.61,0,.7,0,.48-.55.49-.9,0-1.44,0-2.88,0-4.32h.76a11.46,11.46,0,0,1,0,5.43c-1.07,0-2.15,0-3.22,0H805.61Z" transform="translate(177 -428.94)"/><path class="cls-2" d="M571.61,467.22c-.74-.05-1.48-.13-2.23-.13H510c-.58,0-1.15.09-1.73.13.21-.53.69-.37,1.07-.37h61.16C570.92,466.85,571.4,466.69,571.61,467.22Z" transform="translate(177 -428.94)"/><path class="cls-2" d="M666.24,467.22c-.58-.05-1.15-.13-1.73-.13H604.42c-.49,0-1,.08-1.48.13.22-.53.69-.37,1.07-.37h61.16C665.55,466.85,666,466.69,666.24,467.22Z" transform="translate(177 -428.94)"/><path class="cls-2" d="M476.73,467.22c-.62-.05-1.23-.13-1.85-.13l-51,0c-.59,0-1.23.22-1.78-.22h53.45C476,466.86,476.48,466.64,476.73,467.22Z" transform="translate(177 -428.94)"/><path class="cls-2" d="M937.7,504l0-5.43a.51.51,0,0,1,.5.58c0,1.43,0,2.87,0,4.31A.49.49,0,0,1,937.7,504Z" transform="translate(177 -428.94)"/><path class="cls-8" d="M-114.91,502.48c0-1,.73-.66,1.27-.69-.49.21-.44,1.08-1.19,1a.18.18,0,0,1-.12-.16C-114.95,502.52-114.93,502.48-114.91,502.48Z" transform="translate(177 -428.94)"/><path class="cls-9" d="M-114.91,502.48l.08.27c-.06.29-.17.52-.51.54C-115.42,502.9-115.39,502.58-114.91,502.48Z" transform="translate(177 -428.94)"/><path class="cls-10" d="M-176.42,503c.36,0,.73,0,.67.55C-176,503.41-176.52,503.54-176.42,503Z" transform="translate(177 -428.94)"/><path class="cls-11" d="M-175.78,497.26c.1.56-.32.51-.66.56C-176.53,497.26-176.14,497.28-175.78,497.26Z" transform="translate(177 -428.94)"/><path class="cls-1" d="M6.57,459.91c-3.82,1.65-7.63,3.31-11.46,4.94-4.2,1.78-8.42,3.54-12.62,5.31q-7.48,3.16-15,6.35c-1.08.46-2.12,1-3.18,1.51a8.64,8.64,0,0,1-1.83.22q-13.59,0-27.17,0c-.46,0-1.13.3-1.34-.49L-50.12,471c5.33-2.25,10.67-4.47,16-6.73,4.32-1.83,8.61-3.73,12.92-5.57,4.76-2,9.53-4,14.3-6,2.4-1,4.82-2,7.21-3a4.81,4.81,0,0,1,2-.33H85.92q136.59,0,273.2,0a18.66,18.66,0,0,1,7.55,1.68c6.69,2.88,13.41,5.68,20.1,8.53,6,2.53,11.89,5.09,17.84,7.63q10.83,4.6,21.67,9.21l19.52,8.35a69.57,69.57,0,0,1,6.51,3.06h-1.54q-209.37,0-418.74,0a17,17,0,0,0-7,1.53c-7.33,3.19-14.69,6.28-22,9.41a4.9,4.9,0,0,1-1.93.36H-113.06a4.41,4.41,0,0,1-1.87-.3c3.11-1.34,6.09-2.63,9.07-3.9l12.61-5.35,14.85-6.31q4.49-1.92,9-3.88a6,6,0,0,1,2.07-.22c10.62,0,21.24,0,31.86,0a3.32,3.32,0,0,0,.88-.21l9.62-4.06,14.42-6.1q5.6-2.38,11.17-4.8l7.23-3.14a3.89,3.89,0,0,1,1.59-.11h195a12.31,12.31,0,0,0,1.49,0c.25-.11.53-.15.82-.29-.19-.32-.55-.26-.81-.42-.42,0-.83,0-1.25,0H8.16A3.43,3.43,0,0,0,6.57,459.91Z" transform="translate(177 -428.94)"/><path class="cls-1" d="M12.58,498.64c1.38-.6,2.76-1.22,4.16-1.81L30,491.21a6.38,6.38,0,0,1,2.59-.6q213.09,0,426.18,0c1.81,0,3.28.95,4.84,1.58,4.71,1.91,9.35,4,14,6,.44.19.86.45,1.36.71H12.64Z" transform="translate(177 -428.94)"/><path class="cls-1" d="M818.15,466.16l-23.5,10c-7.69,3.28-15.36,6.59-23,9.87-8.51,3.63-17,7.27-25.55,10.85a17.33,17.33,0,0,1-4.44,1.66c-1.92.25-3.49-.7-5.13-1.39-6.41-2.71-12.79-5.47-19.19-8.19-2.63-1.11-5.29-2.15-7.93-3.25-.26-.11-.72-.16-.67-.61s.41-.39.66-.49c8.75-3.72,17.5-7.4,26.24-11.12,5.48-2.33,10.95-4.7,16.42-7.07a3.84,3.84,0,0,1,1.56-.3h63.95Z" transform="translate(177 -428.94)"/><path class="cls-1" d="M676.11,498.52H674.9c-9.43,0-18.86,0-28.29,0a10,10,0,0,1-4-1c-5.27-2.19-10.52-4.42-15.78-6.64-.06,0-.08-.12-.18-.27h1.61c8.48,0,17,.09,25.43-.05a18.93,18.93,0,0,1,8.57,1.71c4.43,2.05,9,3.93,13.5,5.72C675.91,498.05,676.11,498.08,676.11,498.52Z" transform="translate(177 -428.94)"/><path class="cls-1" d="M581.18,498.52H576c-7.23,0-14.47,0-21.71,0a15.78,15.78,0,0,1-6.93-1.18c-4.79-2.21-9.7-4.18-14.55-6.26a5.83,5.83,0,0,1-.73-.48h1.69c9.38,0,18.77,0,28.16,0a11,11,0,0,1,4.34,1.18c4.77,2,9.52,4.07,14.27,6.12a5.07,5.07,0,0,1,.72.4Z" transform="translate(177 -428.94)"/><path class="cls-12" d="M6.57,459.91a4,4,0,0,1,2.16-.23H204.62l1.86,0a.18.18,0,0,1,.08.19c0,.07,0,.1-.06.1a.41.41,0,0,1-.49-.06H6.57Z" transform="translate(177 -428.94)"/><path class="cls-13" d="M206,459.92h.45a.48.48,0,0,1,.06.74c-.45,0-.9.07-1.35.07H9.3c-.49,0-1-.06-1.48-.08.5-.45,1.11-.23,1.67-.23q97.47,0,194.94,0C205,460.39,205.72,460.83,206,459.92Z" transform="translate(177 -428.94)"/><path class="cls-13" d="M-34.62,478.75c-.1.23-.31.23-.52.24a2.13,2.13,0,0,1-1.09.1q-15.81,0-31.63,0c-.36,0-.75.12-1.08-.14.3-.31.69-.22,1.06-.22Z" transform="translate(177 -428.94)"/><path class="cls-14" d="M-68.94,479l33.8,0c-.43.38-1,.18-1.42.18q-16.44,0-32.87,0Z" transform="translate(177 -428.94)"/><path class="cls-14" d="M-66,477.73c.36.54.9.28,1.35.29h29c-.19.26-.48.21-.75.23a1.88,1.88,0,0,1-1,.1h-28.1a2,2,0,0,1-1-.09l-.82-.12Z" transform="translate(177 -428.94)"/><path class="cls-13" d="M-66.44,478.26h30c-.37.38-.85.23-1.29.23H-65.15C-65.58,478.48-66.06,478.63-66.44,478.26Z" transform="translate(177 -428.94)"/><path class="cls-15" d="M206.52,460.66l-.06-.74a.6.6,0,0,0,0-.23c.39,0,.79,0,.76.52S206.86,460.66,206.52,460.66Z" transform="translate(177 -428.94)"/></svg>