<?xml version="1.0" encoding="utf-8"?>
<!-- Generator: Adobe Illustrator 24.2.3, SVG Export Plug-In . SVG Version: 6.00 Build 0)  -->
<svg version="1.1" id="Layer_1" xmlns="http://www.w3.org/2000/svg" xmlns:xlink="http://www.w3.org/1999/xlink" x="0px" y="0px"
	 viewBox="0 0 1116 86.9" style="enable-background:new 0 0 1116 86.9;" xml:space="preserve">
<style type="text/css">
	.st0{fill:#FEFEFE;}
	.st1{fill:#FDFDFD;}
	.st2{fill:#9A9CA3;}
	.st3{fill:#CBCCD0;}
	.st4{fill:#61636E;}
	.st5{fill:#686A74;}
	.st6{fill:#D1D1D4;}
	.st7{fill:#EEEEEF;}
	.st8{fill:#94969D;}
	.st9{fill:#9D9EA5;}
	.st10{fill:#A3A4AB;}
	.st11{fill:#686A75;}
	.st12{fill:#676974;}
	.st13{fill:#747680;}
	.st14{fill:#D3D3D6;}
</style>
<path class="st0" d="M68.8,0.1c348.7,0,697.3,0,1046,0c0.9,0,1.1,0.2,1.1,1.1c0,28.3,0,56.5,0,84.8c0,0.8-0.2,1-1,1
	C743.6,87,372.3,87,1,87c-0.9,0-1-0.2-1-1c0.1-4.3,0-8.6,0-12.9c0.1-0.1,0.4-0.1,0.5,0c0.2,0.2,0.3,0.5,0.3,0.8
	c0,0.4,0.4,0.5,0.6,0.8c1.3,1.8,3,3.3,5,4.3c3.5,2.2,7.5,3.1,11.5,4c5,1.1,10.1,1.5,15.3,1.4c3.4-0.1,6.8-0.5,10.2-1.1
	c3.1-0.5,6.2-1.4,9.2-2.5c3.4-1.4,6.7-3.2,8.7-6.4c0.2-0.3,0.4-0.5,0.7-0.7c0.6-0.4,0.9-1,1.7-1.1c0.7-0.1,1.4-0.1,2.1-0.1
	c198.3,0,396.6,0,594.9,0c1.7,0,3.4,0.4,4.9,1.2c1.6,0.8,3.4,1.1,5.1,1.1h303.8c1.9,0,3.7,0.4,5.4,1.1c6.3,2.8,12.7,5.5,19.1,8.1
	c0.5,0.2,1.1,0.3,1.7,0.3h66.5c0.4,0.1,0.8,0,1.2-0.2c-0.6-0.1-1.1-0.2-1.7-0.1c-20.5,0-41-0.1-61.6,0c-3.3,0.1-6.6-0.6-9.5-2
	c-4.4-2-8.9-3.8-13.3-5.7c-0.5-0.2-1.3-0.3-1.2-1.1c0.7-0.3,1.5-0.4,2.3-0.3h129c0.6,0,1.2,0,1.9,0c0.2,0,0.6-0.1,0.6-0.4
	c0-1.5,0.3-2.9-0.2-4.3l-0.3-0.2c-0.6-0.1-1.2-0.1-1.9-0.1H932.9c-0.6,0-1.2,0-1.9-0.1c-0.3,0-0.5-0.1-0.6-0.4s0.2-0.4,0.4-0.5
	c1.1-0.5,2.2-1,3.3-1.4c13.9-5.8,27.7-11.8,41.5-17.7c12.9-5.5,25.8-11,38.7-16.5c11.7-5,23.3-9.9,35-14.9c2.5-1.1,5-2.1,7.5-3.3
	c6.6-2.9,13.2-5.7,19.8-8.5l10.8-4.7c-1.6-0.2-3.1,0-4.7-0.1c-2.1-0.1-4.2,0.3-6.1,1.2c-16.3,7-32.7,14-49.1,20.9
	c-8.2,3.4-16.3,6.9-24.4,10.4c-0.9,0.3-1.8,0.5-2.8,0.5c-23.7,0-47.5,0-71.3,0c-1.4,0-2.8,0.3-4.1,0.9
	c-14.4,6.2-28.8,12.3-43.2,18.5c-0.8,0.4-1.8,0.5-2.6,0.1c-12.1-5.1-24.3-10.3-36.4-15.5c-0.4-0.1-0.8-0.2-1.2-0.1
	c-20.1,0-40.3,0-60.4,0c0.3,0.6,1,0.6,1.4,0.8c14.6,6.2,29.1,12.4,43.6,18.6c0.5,0.2,1.4,0.3,1.3,0.9s-1,0.4-1.5,0.4h-28.2
	c-1,0-2-0.2-2.9-0.6c-15-6.4-30-12.8-45.1-19.2c-0.6-0.3-1.1-0.5-1.7-0.8c-0.4-0.1-0.8-0.2-1.2-0.1h-60h-0.3
	c0.4,0.6,1.1,0.7,1.6,0.9c14.4,6.1,28.8,12.3,43.3,18.4c0.5,0.2,1.5,0.4,1.4,1s-1.1,0.5-1.7,0.5h-27.9c-1,0-1.9-0.2-2.8-0.6
	C684.7,52,669,45.3,653.3,38.5c-0.6-0.2-1.2-0.2-1.9-0.1c-17.3,0-34.6,0-51.9,0c-2.1-0.3-3.9-1.4-5.8-2.2
	c-15.7-6.7-31.4-13.4-47.1-20.1c-0.5-0.2-1-0.5-1.5-0.6c-0.5-0.1-1.1-0.2-1.6-0.1H174.3c-0.5,0-1.1,0-1.6,0.1
	c-5.2,2.1-10.3,4.3-15.4,6.5c-14.6,6.2-29.2,12.5-43.9,18.7c-1.3,0.6-2.6,1.1-3.9,1.6c-0.6,0.1-1.3-0.2-1.6-0.7
	c-1-1-1.9-1.9-2.9-2.9L69.3,3.1l-0.8-0.8C67.5,1.1,67.5,0.9,68.8,0.1z"/>
<path class="st1" d="M68.8,0.1c-1,0.8-0.7,1.4,0.1,2.3c13,12.9,25.9,25.7,38.8,38.7c0.4,0.4,0.8,1,1.5,0.9c-0.1,0.7-0.7,0.8-1.1,1
	c-7.8,3.3-15.5,6.6-23.3,9.9c-8.2,3.5-16.5,7-24.7,10.6c-1.6,0.9-3.5,0.8-5.1-0.1c-4.6-2.3-9.6-3.7-14.7-4.2
	c-7.6-1-15.4-0.7-22.9,0.8c-4.5,0.8-8.7,2.4-12.5,4.9c-1.4,0.9-2.5,2.1-3.4,3.5c-0.2,0.3-0.6,0.4-0.7,0.8c-0.1,0.2-0.2,0.3-0.3,0.4
	c-0.2,0.1-0.4,0-0.5-0.1C0,46.6,0,23.9,0,1.1C0,0.2,0.2,0,1.1,0C23.7,0.1,46.3,0.1,68.8,0.1z"/>
<path class="st2" d="M0.5,73.1H0v-3c0.2-0.2,0.4-0.1,0.6,0c0,0,0,0,0,0C1.1,71.1,1,72.2,0.5,73.1z"/>
<path class="st3" d="M0.5,70.1H0v-0.7h0.5C0.7,69.5,0.7,69.8,0.5,70.1C0.5,70,0.5,70,0.5,70.1z"/>
<path class="st4" d="M0.5,70.1v-0.7l0.1-0.5c0.1-0.3,0.6-0.3,0.7-0.6c0.6-1.5,1.7-2.8,3.2-3.6c7.5-5,16-6.2,24.7-6.5
	c6.5-0.3,13.1,0.4,19.4,2.1c2.8,0.7,5.6,1.8,8.1,3.3c0.5,0.3,1.1,0.4,1.6,0.2c6.3-2.7,12.5-5.3,18.8-8c7.3-3.1,14.5-6.1,21.8-9.2
	c3.5-1.5,7.1-3.1,10.6-4.6c6.4-2.7,12.8-5.5,19.3-8.2c7.1-3,14.1-6,21.2-9c6.5-2.8,13.1-5.6,19.6-8.4l2.8-1.2c0.4-0.1,0.9-0.1,1.3,0
	h370.7c0.5,0,1-0.2,1.5,0.2c2.4,1,4.8,2.1,7.2,3.2c3.8,1.6,7.7,3.3,11.5,4.9l16.1,6.8c3.7,1.6,7.4,3.2,11.1,4.8
	c2.5,1.1,5,2.1,7.5,3.1c0.5,0.2,1,0.2,1.5,0.1c17.3,0,34.5,0,51.8,0c0.5,0,1-0.2,1.4,0.2c7.6,3.2,15.2,6.4,22.8,9.7
	c6.7,2.8,13.4,5.7,20,8.6c1.6,0.7,3.2,1.3,4.7,2c0.4,0.1,0.8,0.2,1.2,0.2h29.9c0.1,0,0.3,0,0.8-0.1c-5.5-2.3-10.7-4.5-15.9-6.7
	c-4.3-1.8-8.6-3.7-12.9-5.6s-8.4-3.5-12.6-5.3c-2.2-0.9-4.3-1.9-6.4-2.8c0.2-0.5,0.7-0.2,1-0.2c20.4,0,40.9,0,61.3,0
	c0.3,0,0.8-0.2,1,0.2c2.7,1.4,5.5,2.5,8.3,3.7c4.1,1.8,8.3,3.5,12.5,5.3c5,2.1,10,4.3,15.1,6.4c3.6,1.5,7.2,3.1,10.8,4.6
	c0.6,0.3,1.3,0.5,2,0.5H827c0.2,0,0.3,0,0.8-0.1c-2.2-1-4.2-1.9-6.1-2.7c-3.6-1.5-7.2-3-10.8-4.5c-5-2.1-10.1-4.3-15.1-6.4
	l-15.8-6.8c0.2-0.5,0.7-0.2,1-0.2c20.4,0,40.9,0,61.3,0c0.3,0,0.8-0.2,1,0.2c2.3,1.2,4.8,2.1,7.3,3.2c4.4,1.9,8.8,3.8,13.2,5.6
	c4.7,2,9.5,3.9,14.1,6.1c2,1,3.6,0.6,5.5-0.2c7.2-3.2,14.5-6.3,21.8-9.4c7.1-3,14.2-6,21.2-9c0.6-0.2,1.3-0.3,2-0.3
	c23.6,0,47.3,0,70.9,0c2,0,3.9-0.4,5.7-1.2c6.6-2.9,13.3-5.9,20-8.5c8.9-3.5,17.7-7.5,26.6-11.2c7.7-3.2,15.4-6.6,23.1-9.9l3.5-1.5
	c1-0.5,2.1-0.7,3.2-0.6c2.4,0.1,4.9,0,7.5,0c-0.5,0.5-1.1,0.9-1.8,1.1c-4.2,1.8-8.5,3.6-12.7,5.4c-5,2.1-10,4.2-14.9,6.3
	c-0.7,0.3-1.5,0.7-2.2,1c-3,1-5.7,2.3-8.6,3.5c-6.2,2.6-12.4,5.3-18.6,7.9l-17.8,7.6c-5.9,2.5-11.8,5-17.7,7.5
	c-5.5,2.3-10.9,4.7-16.4,7c-6,2.6-11.9,5.1-17.9,7.6c-5.4,2.3-10.9,4.6-16.3,7c-4.2,1.8-8.5,3.5-12.7,5.4c-0.4,0.1-0.8,0.3-1.1,0.6
	c0.1,0.4,0.4,0.3,0.7,0.3s0.7,0,1.1,0h180.5c0.6,0,1.2-0.2,1.7,0.2c0.3,1.5,0.4,3,0.2,4.5c0,0.4-0.2,0.8-0.8,0.8
	c-0.5-0.1-1.1-0.1-1.6-0.1H982.4c-0.6-0.1-1.2,0-1.7,0.2c1,0.8,2,1.3,3.2,1.6c4.9,2.1,9.9,4.2,14.8,6.3c0.9,0.4,1.9,0.6,2.9,0.6
	c21.9,0,43.8,0,65.7,0c0.5,0,1.4-0.4,1.4,0.4s-1,0.3-1.5,0.3c-22.3,0-44.7,0-67,0c-0.5,0-0.9,0-1.4-0.1c-3.5-1.2-6.8-2.8-10.2-4.2
	c-3.7-1.5-7.4-3.2-11.1-4.8c-0.7-0.3-1.5-0.3-2.3-0.3H793.1c-40.3,0-80.7,0-121.1,0c-2.8,0.1-5.6-0.5-8.1-1.8
	c-0.6-0.3-1.2-0.4-1.9-0.4H64.5h-1.1c-0.5,0.1-0.9,0.3-1.2,0.7c-0.3,0.1-0.4,0.5-0.6,0.8c-0.5,1.3-1.4,2.4-2.6,3.1
	c-5.8,4.4-12.6,5.8-19.5,6.7c-5.5,0.7-11.2,0.7-16.7,0c-5.3-0.5-10.4-1.9-15.3-4c-2.2-1-4.1-2.5-5.7-4.2c-0.4-0.3-0.6-0.8-0.6-1.3
	c-0.1-0.3-0.5-0.3-0.7-0.5l-0.1-0.9L0.5,70.1z"/>
<path class="st1" d="M1114,69.6h-1.7H929.2v-0.2c2.8-1.2,5.6-2.4,8.4-3.6c3.8-1.6,7.6-3.2,11.4-4.8c6-2.5,12-5,18-7.6
	c4.9-2.1,9.7-4.2,14.6-6.3c5.4-2.3,10.7-4.5,16.1-6.8c4.3-1.8,8.6-3.7,12.9-5.5c5.4-2.3,10.7-4.5,16.1-6.8c4.3-1.8,8.6-3.7,12.9-5.5
	c5-2.1,10-4.2,15-6.4c0.7-0.5,1.6-0.7,2.4-0.8c-1.9,1-4,1.9-6,2.7c-5.5,2.4-11.1,4.7-16.6,7.1c-5.4,2.3-10.8,4.6-16.2,6.9
	s-10.9,4.7-16.4,7s-10.8,4.6-16.2,6.9l-16.4,7c-5.4,2.3-10.8,4.6-16.2,6.9l-16.2,6.9c-2.2,0.9-4.3,1.8-6.5,3h182.4
	c0.5,0,1.2-0.2,1.6,0.2C1114.5,69.8,1114.2,69.8,1114,69.6z"/>
<path class="st1" d="M545.7,15.2c-0.5,0-1.1,0-1.6,0H173h-0.9c0.3-0.4,0.8-0.2,1.2-0.2c123.7,0,247.4,0,371.1,0
	C544.9,14.9,545.4,14.6,545.7,15.2z"/>
<path class="st5" d="M998.9,84.2c0.6,0,1.2,0,1.7,0h66.6c0.5,0.1,1,0,1.5-0.2c-0.4-0.4-1-0.3-1.4-0.3h-47.2c-5.4,0-10.8-0.1-16.3,0
	c-2.8,0.1-5.5-0.5-8-1.7c-5.1-2.2-10.2-4.4-15.2-6.5c-0.3-0.1-0.7-0.2-0.7-0.6s0.6-0.3,0.9-0.4c0.2,0,0.5,0,0.7,0h130.3
	c0.5,0,1.2-0.3,1.6,0.3c-0.5,0.1-1,0.1-1.5,0.1H982.7c-0.5-0.1-1.1,0-1.6,0.1c1.4,1.1,3.1,1.5,4.7,2.2c4.3,1.9,8.6,3.7,12.8,5.5
	c1,0.5,2.1,0.7,3.2,0.7c22,0,44,0,65.9,0h1c0.3,0,0.6,0.1,0.6,0.5s-0.2,0.6-0.6,0.6h-67.9C1000.2,84.5,999.5,84.7,998.9,84.2z"/>
<path class="st6" d="M981.1,75.1c0.5-0.4,1-0.2,1.6-0.2h129.2c0.5,0,1.1,0,1.6,0c0.7,0,0.5-0.5,0.5-0.9c0-1.4,0-2.9,0-4.3h0.8
	c0.4,1.8,0.4,3.6,0,5.4c-1.1,0-2.2,0-3.2,0H982.6L981.1,75.1z"/>
<path class="st1" d="M748.6,38.3c-0.7,0-1.5-0.1-2.2-0.1H687c-0.6,0-1.2,0.1-1.7,0.1c0.2-0.5,0.7-0.4,1.1-0.4h61.2
	C747.9,37.9,748.4,37.8,748.6,38.3z"/>
<path class="st1" d="M843.2,38.3c-0.6,0-1.2-0.1-1.7-0.1h-60.1c-0.5,0-1,0.1-1.5,0.1c0.2-0.5,0.7-0.4,1.1-0.4h61.2
	C842.5,37.9,843,37.8,843.2,38.3z"/>
<path class="st1" d="M653.7,38.3c-0.6,0-1.2-0.1-1.8-0.1h-51c-0.6,0-1.2,0.2-1.8-0.2h53.5C653,37.9,653.5,37.7,653.7,38.3z"/>
<path class="st1" d="M1114.7,75.1v-5.4c0.3,0,0.5,0.2,0.5,0.5c0,0,0,0,0,0.1c0,1.4,0,2.9,0,4.3C1115.2,74.8,1115,75,1114.7,75.1
	C1114.7,75.1,1114.7,75.1,1114.7,75.1z"/>
<path class="st7" d="M62.1,73.5c0-1,0.7-0.7,1.3-0.7c-0.5,0.2-0.4,1.1-1.2,1c-0.1,0-0.1-0.1-0.1-0.2C62.1,73.6,62.1,73.5,62.1,73.5z
	"/>
<path class="st8" d="M62.1,73.5l0.1,0.3c-0.1,0.3-0.2,0.5-0.5,0.5C61.6,74,61.6,73.6,62.1,73.5z"/>
<path class="st9" d="M0.6,74.1c0.4,0,0.7,0,0.7,0.5C1,74.5,0.5,74.6,0.6,74.1z"/>
<path class="st10" d="M1.2,68.3c0.1,0.6-0.3,0.5-0.7,0.6C0.5,68.3,0.9,68.3,1.2,68.3z"/>
<path class="st0" d="M183.6,31c-3.8,1.6-7.6,3.3-11.5,4.9c-4.2,1.8-8.4,3.5-12.6,5.3c-5,2.1-10,4.2-15,6.4c-1.1,0.5-2.1,1-3.2,1.5
	c-0.6,0.1-1.2,0.2-1.8,0.2c-9.1,0-18.1,0-27.2,0c-0.5,0-1.1,0.3-1.3-0.5l15.9-6.8c5.3-2.3,10.7-4.5,16-6.7c4.3-1.8,8.6-3.7,12.9-5.6
	c4.8-2,9.5-4,14.3-6c2.4-1,4.8-2,7.2-3c0.6-0.3,1.3-0.4,2-0.3h83.6c91.1,0,182.1,0,273.2,0c2.6,0,5.2,0.6,7.5,1.7
	c6.7,2.9,13.4,5.7,20.1,8.5c6,2.5,11.9,5.1,17.8,7.6c7.2,3.1,14.4,6.1,21.7,9.2l19.5,8.4c2.2,0.9,4.4,1.9,6.5,3.1h-1.5
	c-139.6,0-279.2,0-418.7,0c-2.4,0-4.8,0.5-7,1.5c-7.3,3.2-14.7,6.3-22,9.4c-0.6,0.2-1.3,0.4-1.9,0.4H63.9c-0.6,0-1.3-0.1-1.9-0.3
	c3.1-1.3,6.1-2.6,9.1-3.9l12.6-5.4l14.8-6.3c3-1.3,6-2.6,9-3.9c0.7-0.2,1.4-0.3,2.1-0.2c10.6,0,21.2,0,31.9,0c0.3,0,0.6-0.1,0.9-0.2
	L152,46l14.4-6.1c3.7-1.6,7.5-3.2,11.2-4.8l7.2-3.1c0.5-0.1,1.1-0.2,1.6-0.1h195c0.5,0,1,0,1.5,0c0.3-0.1,0.5-0.1,0.8-0.3
	c-0.2-0.3-0.5-0.3-0.8-0.4c-0.4,0-0.8,0-1.3,0H185.2C184.6,30.9,184.1,30.9,183.6,31z"/>
<path class="st0" d="M189.6,69.7c1.4-0.6,2.8-1.2,4.2-1.8l13.3-5.6c0.8-0.4,1.7-0.6,2.6-0.6c142.1,0,284.1,0,426.2,0
	c1.8,0,3.3,1,4.8,1.6c4.7,1.9,9.3,4,14,6c0.4,0.2,0.9,0.5,1.4,0.7H189.6L189.6,69.7z"/>
<path class="st0" d="M995.2,37.2l-23.5,10c-7.7,3.3-15.4,6.6-23,9.9c-8.5,3.6-17,7.3-25.5,10.9c-1.4,0.8-2.9,1.3-4.4,1.7
	c-1.9,0.3-3.5-0.7-5.1-1.4c-6.4-2.7-12.8-5.5-19.2-8.2c-2.6-1.1-5.3-2.1-7.9-3.3c-0.3-0.1-0.7-0.2-0.7-0.6s0.4-0.4,0.7-0.5
	c8.8-3.7,17.5-7.4,26.2-11.1c5.5-2.3,11-4.7,16.4-7.1c0.5-0.2,1-0.3,1.6-0.3h64L995.2,37.2z"/>
<path class="st0" d="M853.1,69.6h-1.2c-9.4,0-18.9,0-28.3,0c-1.4-0.1-2.8-0.4-4-1c-5.3-2.2-10.5-4.4-15.8-6.6
	c-0.1,0-0.1-0.1-0.2-0.3h1.6c8.5,0,17,0.1,25.4,0c3-0.1,5.9,0.5,8.6,1.7c4.4,2,9,3.9,13.5,5.7C852.9,69.1,853.1,69.1,853.1,69.6z"/>
<path class="st0" d="M758.2,69.6H753c-7.2,0-14.5,0-21.7,0c-2.4,0.1-4.7-0.3-6.9-1.2c-4.8-2.2-9.7-4.2-14.5-6.3
	c-0.3-0.1-0.5-0.3-0.7-0.5h1.7c9.4,0,18.8,0,28.2,0c1.5,0.1,3,0.5,4.3,1.2c4.8,2,9.5,4.1,14.3,6.1c0.3,0.1,0.5,0.2,0.7,0.4
	L758.2,69.6z"/>
<path class="st11" d="M183.6,31c0.7-0.3,1.4-0.4,2.2-0.2h195.9h1.9c0.1,0,0.1,0.1,0.1,0.2c0,0.1,0,0.1-0.1,0.1
	c-0.2,0.1-0.4,0.1-0.5-0.1H183.6z"/>
<path class="st12" d="M383,31h0.5c0.2,0.2,0.3,0.4,0.1,0.7c0,0,0,0.1-0.1,0.1c-0.5,0-0.9,0.1-1.4,0.1H186.3c-0.5,0-1-0.1-1.5-0.1
	c0.5-0.5,1.1-0.2,1.7-0.2c65,0,130,0,194.9,0C382,31.5,382.7,31.9,383,31z"/>
<path class="st12" d="M142.4,49.8c-0.1,0.2-0.3,0.2-0.5,0.2c-0.3,0.1-0.7,0.2-1.1,0.1c-10.5,0-21.1,0-31.6,0c-0.4,0-0.8,0.1-1.1-0.1
	c0.3-0.3,0.7-0.2,1.1-0.2L142.4,49.8z"/>
<path class="st13" d="M108.1,50.1h33.8c-0.4,0.4-1,0.2-1.4,0.2c-11,0-21.9,0-32.9,0L108.1,50.1z"/>
<path class="st13" d="M111,48.8c0.4,0.5,0.9,0.3,1.3,0.3h29c-0.2,0.3-0.5,0.2-0.8,0.2c-0.3,0.1-0.7,0.2-1,0.1h-28.1
	c-0.3,0.1-0.7,0-1-0.1l-0.8-0.1L111,48.8z"/>
<path class="st12" d="M110.6,49.3h30c-0.4,0.4-0.9,0.2-1.3,0.2h-27.4C111.4,49.5,110.9,49.7,110.6,49.3z"/>
<path class="st14" d="M383.5,31.7l-0.1-0.7c0-0.1,0-0.2,0-0.2c0.4,0,0.8,0,0.8,0.5S383.9,31.7,383.5,31.7z"/>
</svg>
