<svg xmlns="http://www.w3.org/2000/svg" version="1.1" xmlns:xlink="http://www.w3.org/1999/xlink" xmlns:svgjs="http://svgjs.com/svgjs" width="512" height="512" x="0" y="0" viewBox="0 0 512 512" style="enable-background:new 0 0 512 512" xml:space="preserve" class=""><g><path d="M106.43 361.59H37.5c-16.57 0-30-13.43-30-30V37.5c0-16.57 13.43-30 30-30h322M214.5 361.59h-93.07M374.5 7.5h42c16.57 0 30 13.43 30 30v204.912" style="stroke-width:15;stroke-miterlimit:10;" fill="none" stroke="#45bfe8" stroke-width="15" stroke-miterlimit="10" data-original="#000000" class="" opacity="1"></path><path d="m83.926 126.588 30 30-30 30M147.162 171.588l222.912 2.03M147.162 141.588l222.912 2.03M83.926 227.588l30 30-30 30M147.162 272.588h62.912M147.162 242.588h62.912M313.145 385.249 284.5 358.394l28.645-26.855M405.855 331.539l28.645 26.855-28.645 26.855M336.5 388l46-57" style="stroke-width:15;stroke-miterlimit:10;" fill="none" stroke="#45bfe8" stroke-width="15" stroke-miterlimit="10" data-original="#000000" class="" opacity="1"></path><path d="m380.087 214.5 10.126 28.474 29.967 12.413 27.294-12.974 29.114 29.114-12.974 27.294 12.413 29.967 28.474 10.126v41.174l-28.474 10.126-12.413 29.967 12.974 27.294-29.114 29.114-27.294-12.974-29.967 12.413-10.126 28.472h-41.174l-10.126-28.474-29.967-12.413-27.294 12.974-29.114-29.114 12.974-27.294-12.413-29.967-28.473-10.125v-41.174l28.474-10.126 12.413-29.967-12.974-27.294 29.114-29.114 27.294 12.974 29.967-12.413 10.126-28.474 41.173.001zM7.5 72.529h439M47.088 41.353h15M77.088 41.353h15" style="stroke-width:15;stroke-miterlimit:10;" fill="none" stroke="#45bfe8" stroke-width="15" stroke-miterlimit="10" data-original="#000000" class="" opacity="1"></path></g></svg>